<svg fill="#000000" height="800px" width="800px" version="1.1" xmlns="http://www.w3.org/2000/svg" viewBox="0 0 279.519 279.519" xmlns:xlink="http://www.w3.org/1999/xlink" enable-background="new 0 0 279.519 279.519">
  <g>
    <path d="m231.426,239.916h-13.5l-20.569-27.505 39.203-121.231c0.192-0.597 0.291-1.219 0.291-1.846 0-49.259-40.075-89.334-89.334-89.334-22.35,0-43.74,8.295-60.231,23.358-1.264,1.155-1.975,2.794-1.953,4.506 0.022,1.712 0.774,3.333 2.067,4.456l23.776,20.633-44.972,44.449c-6.649,6.574-6.915,17.127-0.604,24.025l14.575,15.93c1.606,1.757 4.101,2.395 6.357,1.631l49.715-16.894c1.061,0.677 2.151,1.305 3.274,1.873l-59.256,62.332c-13.653,14.363-19.268,34.451-15.305,53.617h-16.868c-3.313,0-6,2.687-6,6v27.603c0,3.313 2.687,6 6,6h183.334c3.313,0 6-2.687 6-6v-27.603c0-3.313-2.686-6-6-6zm-142.464-45.35l63.484-66.779c1.307,0.14 2.625,0.231 3.954,0.231 20.659,0 37.467-16.808 37.467-37.467 0-10.007-3.897-19.417-10.975-26.493-2.342-2.343-6.143-2.343-8.484,0-2.344,2.343-2.344,6.142 0,8.485 4.81,4.81 7.459,11.206 7.459,18.008 0,14.042-11.425,25.467-25.467,25.467-9.036,0-17.478-4.858-22.029-12.679-1.667-2.864-5.341-3.836-8.204-2.167-2.863,1.667-3.834,5.34-2.167,8.204 0.696,1.196 1.468,2.332 2.282,3.43l-39.899,13.559-11.93-13.039c-1.941-2.122-1.859-5.369 0.186-7.39l49.58-49.002c1.188-1.175 1.833-2.792 1.779-4.462-0.055-1.67-0.803-3.242-2.064-4.337l-23.354-20.267c13.434-10.275 29.863-15.868 46.937-15.868 42.332,0 76.83,34.188 77.328,76.404l-39.86,123.268c-0.599,1.853-0.262,3.88 0.904,5.439l17.054,22.804h-125.641c-4.2-16.056 0.153-33.242 11.66-45.349zm136.464,72.953h-171.334v-15.603h171.334v15.603z"/>
  </g>
</svg>
